HIERARCHY
ROOT hip
{
  OFFSET 0 0 0
  CHANNELS 6 Xposition Yposition Zposition Zrotation Yrotation Xrotation
  JOINT abdomen
  {
    OFFSET 0 20.6881 -0.73152
    CHANNELS 3 Zrotation Xrotation Yrotation
    JOINT chest
    {
      OFFSET 0 11.7043 -0.48768
      CHANNELS 3 Zrotation Xrotation Yrotation
      JOINT neck
      {
        OFFSET 0 22.1894 -2.19456
        CHANNELS 3 Zrotation Xrotation Yrotation
        JOINT head
        {
          OFFSET -0.24384 7.07133 1.2192
          CHANNELS 3 Zrotation Xrotation Yrotation
          JOINT leftEye
          {
            OFFSET 4.14528 8.04674 8.04672
            CHANNELS 3 Zrotation Xrotation Yrotation
            End Site
            {
              OFFSET 1 0 0
            }
          }
          JOINT rightEye
          {
            OFFSET -3.6576 8.04674 8.04672
            CHANNELS 3 Zrotation Xrotation Yrotation
            End Site
            {
              OFFSET 1 0 0
            }
          }
        }
      }
      JOINT rCollar
      {
        OFFSET -2.68224 19.2634 -4.8768
        CHANNELS 3 Zrotation Xrotation Yrotation
        JOINT rShldr
        {
          OFFSET -8.77824 -1.95073 1.46304
          CHANNELS 3 Zrotation Xrotation Yrotation
          JOINT rForeArm
          {
            OFFSET -28.1742 -1.7115 0.48768
            CHANNELS 3 Zrotation Xrotation Yrotation
            JOINT rHand
            {
              OFFSET -22.5879 0.773209 7.07136
              CHANNELS 3 Zrotation Xrotation Yrotation
              JOINT rThumb1
              {
                OFFSET -1.2192 -0.487915 3.41376
                CHANNELS 3 Zrotation Xrotation Yrotation
                JOINT rThumb2
                {
                  OFFSET -3.37035 -0.52449 3.41376
                  CHANNELS 3 Zrotation Xrotation Yrotation
                  End Site
                  {
                    OFFSET -1.78271 -1.18214 1.43049
                  }
                }
              }
              JOINT rIndex1
              {
                OFFSET -7.75947 0.938293 5.60832
                CHANNELS 3 Zrotation Xrotation Yrotation
                JOINT rIndex2
                {
                  OFFSET -2.54057 -0.884171 1.56538
                  CHANNELS 3 Zrotation Xrotation Yrotation
                  End Site
                  {
                    OFFSET -1.62519 -0.234802 1.16502
                  }
                }
              }
              JOINT rMid1
              {
                OFFSET -8.24714 1.18213 3.41376
                CHANNELS 3 Zrotation Xrotation Yrotation
                JOINT rMid2
                {
                  OFFSET -3.10165 -0.590103 1.0647
                  CHANNELS 3 Zrotation Xrotation Yrotation
                  End Site
                  {
                    OFFSET -2.48547 -0.328903 0.83742
                  }
                }
              }
              JOINT rRing1
              {
                OFFSET -8.82822 0.546677 1.51678
                CHANNELS 3 Zrotation Xrotation Yrotation
                JOINT rRing2
                {
                  OFFSET -2.60934 -0.819778 -0.0198488
                  CHANNELS 3 Zrotation Xrotation Yrotation
                  End Site
                  {
                    OFFSET -2.33842 -0.294052 0.168128
                  }
                }
              }
              JOINT rPinky1
              {
                OFFSET -8.27202 -0.0477905 -0.4584
                CHANNELS 3 Zrotation Xrotation Yrotation
                JOINT rPinky2
                {
                  OFFSET -1.82734 -0.647385 -0.700984
                  CHANNELS 3 Zrotation Xrotation Yrotation
                  End Site
                  {
                    OFFSET -1.69225 -0.51767 -0.607171
                  }
                }
              }
            }
          }
        }
      }
      JOINT lCollar
      {
        OFFSET 2.68224 19.2634 -4.8768
        CHANNELS 3 Zrotation Xrotation Yrotation
        JOINT lShldr
        {
          OFFSET 8.77824 -1.95073 1.46304
          CHANNELS 3 Zrotation Xrotation Yrotation
          JOINT lForeArm
          {
            OFFSET 28.1742 -1.7115 0.48768
            CHANNELS 3 Zrotation Xrotation Yrotation
            JOINT lHand
            {
              OFFSET 22.5879 0.773209 7.07136
              CHANNELS 3 Zrotation Xrotation Yrotation
              JOINT lThumb1
              {
                OFFSET 1.2192 -0.487915 3.41376
                CHANNELS 3 Zrotation Xrotation Yrotation
                JOINT lThumb2
                {
                  OFFSET 3.37035 -0.52449 3.41376
                  CHANNELS 3 Zrotation Xrotation Yrotation
                  End Site
                  {
                    OFFSET 1.78271 -1.18214 1.43049
                  }
                }
              }
              JOINT lIndex1
              {
                OFFSET 7.75947 0.938293 5.60832
                CHANNELS 3 Zrotation Xrotation Yrotation
                JOINT lIndex2
                {
                  OFFSET 2.54057 -0.884171 1.56538
                  CHANNELS 3 Zrotation Xrotation Yrotation
                  End Site
                  {
                    OFFSET 1.62519 -0.234802 1.16502
                  }
                }
              }
              JOINT lMid1
              {
                OFFSET 8.24714 1.18213 3.41376
                CHANNELS 3 Zrotation Xrotation Yrotation
                JOINT lMid2
                {
                  OFFSET 3.10165 -0.590103 1.0647
                  CHANNELS 3 Zrotation Xrotation Yrotation
                  End Site
                  {
                    OFFSET 2.48547 -0.328903 0.83742
                  }
                }
              }
              JOINT lRing1
              {
                OFFSET 8.82822 0.546677 1.51678
                CHANNELS 3 Zrotation Xrotation Yrotation
                JOINT lRing2
                {
                  OFFSET 2.60934 -0.819778 -0.0198488
                  CHANNELS 3 Zrotation Xrotation Yrotation
                  End Site
                  {
                    OFFSET 2.33842 -0.294052 0.168128
                  }
                }
              }
              JOINT lPinky1
              {
                OFFSET 8.27202 -0.0477905 -0.4584
                CHANNELS 3 Zrotation Xrotation Yrotation
                JOINT lPinky2
                {
                  OFFSET 1.82734 -0.647385 -0.700984
                  CHANNELS 3 Zrotation Xrotation Yrotation
                  End Site
                  {
                    OFFSET 1.69225 -0.51767 -0.607171
                  }
                }
              }
            }
          }
        }
      }
    }
  }
  JOINT rButtock
  {
    OFFSET -8.77824 4.35084 1.2192
    CHANNELS 3 Zrotation Xrotation Yrotation
    JOINT rThigh
    {
      OFFSET 0 -1.70687 -2.19456
      CHANNELS 3 Zrotation Xrotation Yrotation
      JOINT rShin
      {
        OFFSET 0 -36.8199 0.73152
        CHANNELS 3 Zrotation Xrotation Yrotation
        JOINT rFoot
        {
          OFFSET 0.73152 -45.1104 -5.12064
          CHANNELS 3 Zrotation Xrotation Yrotation
          End Site
          {
            OFFSET -1.1221 -3.69964 12.103
          }
        }
      }
    }
  }
  JOINT lButtock
  {
    OFFSET 8.77824 4.35084 1.2192
    CHANNELS 3 Zrotation Xrotation Yrotation
    JOINT lThigh
    {
      OFFSET 0 -1.70687 -2.19456
      CHANNELS 3 Zrotation Xrotation Yrotation
      JOINT lShin
      {
        OFFSET 0 -36.8199 0.73152
        CHANNELS 3 Zrotation Xrotation Yrotation
        JOINT lFoot
        {
          OFFSET -0.73152 -45.1104 -5.12064
          CHANNELS 3 Zrotation Xrotation Yrotation
          End Site
          {
            OFFSET 1.1221 -3.69964 12.103
          }
        }
      }
    }
  }
}
MOTION
Frames:	10
Frame Time:	0.00833333
0.0 0.0 0.0 0.0 0.0 0.0 0.0 0.0 0.0 0.0 0.0 0.0 0.0 0.0 0.0 0.0 0.0 0.0 0.0 0.0 0.0 0.0 0.0 0.0 0.0 0.0 0.0 0.0 0.0 0.0 0.0 0.0 0.0 0.0 0.0 0.0 0.0 0.0 0.0 0.0 0.0 0.0 0.0 0.0 0.0 0.0 0.0 0.0 0.0 0.0 0.0 0.0 0.0 0.0 0.0 0.0 0.0 0.0 0.0 0.0 0.0 0.0 0.0 0.0 0.0 0.0 0.0 0.0 0.0 0.0 0.0 0.0 0.0 0.0 0.0 0.0 0.0 0.0 0.0 0.0 0.0 0.0 0.0 0.0 0.0 0.0 0.0 0.0 0.0 0.0 0.0 0.0 0.0 0.0 0.0 0.0 0.0 0.0 0.0 0.0 0.0 0.0 0.0 0.0 0.0 0.0 0.0 0.0 0.0 0.0 0.0 0.0 0.0 0.0 0.0 0.0 0.0 0.0 0.0 0.0 0.0 0.0 0.0 0.0 0.0 0.0 0.0 0.0 0.0 0.0 0.0 0.0
125.76799999999999 83.3839 13.869600000000002 -0.0 -0.0 -0.0 -0.0 -4.771896 -180.0 -0.0 -4.771896 180.0 -3.941986 17.932259 -132.771391 10.667824 15.013811 131.983833 -0.0 -0.0 0.0 -0.0 -0.0 0.0 -155.716846 -4.925325 162.135615 -148.258241 18.431079 159.352667 5.517953 4.341577 0.693015 -5.817304 18.269571 0.304936 2.016417 -2.000371 -0.275365 -102.422898 12.554441 93.321074 -108.427673 34.160977 91.742903 -0.995671 25.871806 -9.794001 173.123457 -66.297779 137.614274 -1.58609 14.124857 5.673768 -145.119466 0.267753 -179.212454 -145.94552 64.467977 172.288948 -154.40895 46.07326 -149.057927 -23.877127 -38.617967 -27.101657 155.54842 -3.80427 -161.899949 146.291817 23.2587 -158.573675 179.5433 -13.435452 -143.722678 -171.835594 -13.122504 -144.292905 -1.842452 -1.827119 0.254339 -16.44842 -27.237899 13.679857 -19.56865 -35.040283 5.986264 11.334214 18.682805 -10.962714 -7.904304 -24.807577 3.013399 -46.045839 -70.391907 -23.277875 75.673382 -72.116249 92.828895 153.079226 -15.588027 -167.698997 10.675082 -21.645148 10.116939 25.077622 -41.654988 23.660205 -0.0 0.0 -0.0 -0.0 -2.27635 -180.0 -7.141193 -6.527402 -102.138307 -4.936032 -1.296361 -80.401011 -0.0 0.0 -0.0 -0.0 -2.27635 -180.0 7.475086 -7.806967 90.632939 147.606122 -23.072471 -110.693921
125.782 83.3803 13.8644 -0.0 -0.0 -0.0 0.0 0.0 0.0 0.0 -0.0 0.0 -3.941986 17.932259 -132.771391 10.667824 15.013811 131.983833 -0.0 -0.0 0.0 -0.0 -0.0 0.0 -9.651699 34.836178 11.199233 -164.452868 -27.575476 -176.062683 22.595632 6.800487 -19.106234 -143.974824 65.893343 121.433535 0.567845 -0.561452 -0.084526 -0.727027 0.756786 0.222299 -140.164771 2.326489 115.87806 19.102452 -1.531799 -14.259298 -0.057679 0.167876 0.032027 -166.911652 -6.019318 143.46077 0.000474 0.063775 0.020036 -5.230314 38.169489 6.813636 -150.577948 31.033784 -146.363897 13.055639 24.375625 2.920381 9.651699 34.836178 -11.199233 13.947974 -74.820692 25.030574 -179.640841 -25.59966 -142.852456 -172.186471 -12.08514 -144.40516 -88.928376 -50.831327 -37.599672 90.303101 -86.871161 128.986327 33.797169 34.48579 -25.494234 -1.047841 -1.341195 8.944125 -2.100045 -6.305437 1.081362 -0.021871 -0.114952 -0.349348 0.021306 -1.72602 0.542654 166.774379 -22.840175 -174.10617 -1.482059 4.003653 -1.360876 154.809956 28.804745 146.921358 -0.0 0.0 -0.0 -0.0 -0.0 -0.0 6.649139 3.263768 68.510317 -152.790666 -75.672878 105.247904 -0.0 0.0 -0.0 -0.0 -0.0 -0.0 -7.257013 4.706347 -82.148383 151.619437 -0.571771 -94.897211
125.786 83.3786 13.8522 -0.0 0.0 -0.0 -0.0 0.0 -0.0 0.0 -0.0 -0.0 -2.189902 0.70575 -13.10212 2.292863 -0.190556 13.119422 -0.0 -0.0 0.0 -0.0 -0.0 0.0 -44.04046 64.186901 46.710612 -65.446975 88.301745 82.244813 -88.508676 -75.618095 -109.317904 43.809492 -63.90395 30.852166 178.619005 -18.760041 89.038626 -122.628342 18.059649 59.746344 -19.170572 24.114561 13.380841 -174.154071 -15.654014 115.347558 -167.375306 -28.008469 145.269175 -168.291079 -26.843572 142.625158 -74.840941 72.961123 92.827929 1.893929 -17.610115 -17.799928 -145.173549 12.06758 -141.82295 4.363899 -1.156902 -2.285763 143.620413 38.233348 -148.080496 -31.26543 -56.124611 -9.016392 -28.330384 86.847459 59.395143 -171.404556 -14.381377 -144.147091 121.36458 30.329582 -71.957921 -140.035611 -45.004571 -70.009687 151.353117 -17.158427 -121.133109 -18.764421 6.316587 10.158871 -78.537123 -80.919176 -49.688177 -2.340259 1.45554 -3.465221 0.021291 -1.725169 0.542387 -0.142078 0.000483 -0.322894 -0.098846 0.258289 -0.091255 -12.209385 42.200361 -8.4889 -0.0 0.0 -0.0 0.0 -0.0 0.0 7.351061 7.95861 110.818785 5.747415 31.687297 -107.292335 -0.0 0.0 -0.0 0.0 -0.0 0.0 -0.722729 -0.062786 -6.330347 -154.066748 -37.321436 -8.253165
125.786 83.3784 13.834299999999999 -0.0 0.0 -0.0 -0.0 0.0 -0.0 0.0 -0.0 -0.0 -2.189902 0.70575 -13.10212 2.292863 -0.190556 13.119422 -0.0 -0.0 0.0 -0.0 -0.0 0.0 -44.04046 64.186901 46.710612 -65.446975 88.301745 82.244813 -178.406744 -0.126048 178.865941 -5.569994 17.530494 0.254261 5.513585 -5.499559 -0.587069 19.02573 -37.035719 -18.384139 -4.706866 7.223928 2.854949 -168.196786 -5.60888 110.884826 23.903801 -61.333833 1.399383 -14.862115 32.597288 12.430163 0.000474 0.063775 0.020036 -86.745911 78.756497 89.816303 -139.545782 -3.621032 -136.690868 -131.473171 -19.722703 -131.47245 143.620413 38.233348 -148.080496 -31.26543 -56.124611 -9.016392 -146.885072 83.637223 178.068723 -174.036407 -6.451705 -144.897116 -178.619005 -18.760041 -89.038626 127.754331 17.148845 -63.869859 153.453439 -21.067684 -121.744506 -3.841593 31.294109 0.914855 -89.035113 -81.393384 -59.759886 164.248048 -6.761584 -140.251116 -0.000474 0.063775 -0.020036 165.801535 -1.876663 -172.021085 145.173549 12.06758 141.82295 125.860159 -27.523943 125.773429 -0.0 0.0 -0.0 0.0 -0.0 0.0 7.351061 7.95861 110.818785 5.747415 31.687297 -107.292335 -0.0 0.0 -0.0 0.0 -0.0 0.0 -0.722729 -0.062786 -6.330347 -154.066748 -37.321436 -8.253165
125.805 83.3779 13.8234 -0.0 0.0 0.0 0.0 -4.771896 -180.0 -0.0 -4.771896 180.0 11.624331 6.892644 83.839365 -8.105668 10.81949 -83.772938 -0.0 -0.0 0.0 -0.0 -0.0 0.0 -131.055687 54.037162 134.942347 -152.670659 -1.33206 174.396912 172.786388 -56.210485 136.190532 174.371027 -5.407816 144.967481 -5.762555 5.57569 1.158248 6.745312 -7.034513 -1.375395 -138.493513 4.896353 114.8648 -164.219534 -40.242928 122.302465 -160.09819 -4.901163 142.968881 5.728826 2.14614 0.483415 0.000474 0.063839 0.020056 -2.169251 21.513077 3.143279 -110.054214 -41.782596 -108.1278 -145.224666 11.290355 -144.509331 155.504155 -3.514523 -161.838528 171.730711 -47.005088 -157.363052 178.907892 62.641324 -147.03584 -171.028915 -15.463901 -144.013054 5.433768 5.264911 -1.077842 139.737399 -44.345153 -116.283368 132.541565 13.16086 -110.915328 -79.343145 -73.834056 -22.554493 82.840589 61.110826 -74.532293 7.310397 30.15101 -4.060639 0.014868 -1.323148 0.415899 -1.493996 -44.82726 5.113438 -6.227694 18.789635 -5.573717 -42.10843 81.567573 8.009537 -0.0 0.0 -0.0 -0.0 -2.27635 180.0 4.573604 -5.158218 131.753464 -2.312363 -5.916718 51.4023 -0.0 0.0 -0.0 -0.0 -2.27635 180.0 0.8711 -15.292348 -8.675706 -69.058001 2.432886 176.091171
125.824 83.375 13.8173 -0.0 -0.0 -0.0 0.0 0.0 0.0 0.0 -0.0 0.0 -3.941986 17.932259 -132.771391 10.667824 15.013811 131.983833 -0.0 -0.0 0.0 -0.0 -0.0 0.0 -9.651699 34.836178 11.199233 -164.452868 -27.575476 -176.062683 22.595632 6.800487 -19.106234 -143.974824 65.893343 121.433535 0.567845 -0.561452 -0.084526 -0.727027 0.756786 0.222299 -140.164771 2.326489 115.87806 19.102452 -1.531799 -14.259298 -0.057679 0.167876 0.032027 -166.911652 -6.019318 143.46077 0.000474 0.063775 0.020036 -5.230314 38.169489 6.813636 -150.577948 31.033784 -146.363897 13.055639 24.375625 2.920381 9.651699 34.836178 -11.199233 -7.342948 15.814737 2.867277 -46.464211 -79.833828 -42.074319 10.31958 30.612548 -1.752874 121.36458 30.329582 -71.957921 167.088226 -25.862185 -77.128788 -129.2177 -75.529207 -76.343847 -154.573484 -54.694599 -82.338946 -7.904304 -24.807577 3.013399 166.522048 -5.330197 -141.988369 -0.004875 1.770451 -0.556181 1.352969 -62.895107 9.879607 156.381711 53.734251 150.117957 125.89843 -27.695839 123.739879 -0.0 0.0 -0.0 -0.0 -0.0 -0.0 6.649139 3.263768 68.510317 -152.790666 -75.672878 105.247904 -0.0 0.0 -0.0 -0.0 -0.0 -0.0 -7.257013 4.706347 -82.148383 151.619437 -0.571771 -94.897211
125.84299999999999 83.3707 13.8107 -0.0 0.0 -0.0 -0.0 0.0 -0.0 0.0 -0.0 -0.0 -2.189902 0.70575 -13.10212 2.292863 -0.190556 13.119422 0.0 -0.0 -0.0 0.0 -0.0 -0.0 -44.04046 64.186901 46.710612 -65.446975 88.301745 82.244813 -88.508676 -75.618095 -109.317904 43.809492 -63.90395 30.852166 178.619005 -18.760041 89.038626 -122.628342 18.059649 59.746344 -19.170572 24.114561 13.380841 -174.154071 -15.654014 115.347558 -167.375306 -28.008469 145.269175 -168.291079 -26.843572 142.625158 -74.840941 72.961123 92.827929 1.893929 -17.610115 -17.799928 -145.173549 12.06758 -141.82295 4.363899 -1.156902 -2.285763 143.620413 38.233348 -148.080496 151.970795 -2.382502 -170.677154 -150.974624 -63.329882 -119.310168 176.456587 23.044031 -144.51098 103.199394 36.330979 -60.111426 133.798691 -18.088078 -74.87567 -37.215945 -57.917763 0.643014 79.208687 42.158816 -62.651331 0.969343 2.779591 -0.553338 58.039317 62.254478 -48.090642 145.119721 0.310087 179.225753 -16.717959 -29.132644 13.822181 82.642408 -51.016034 81.046325 20.764062 -41.050924 22.054133 -0.0 0.0 -0.0 0.0 -0.0 0.0 7.351061 7.95861 110.818785 5.747415 31.687297 -107.292335 -0.0 0.0 -0.0 0.0 -0.0 0.0 -0.722729 -0.062786 -6.330347 -154.066748 -37.321436 -8.253165
125.852 83.3688 13.8096 -0.0 0.0 -0.0 -0.0 0.0 -0.0 0.0 -0.0 -0.0 -2.189902 0.70575 -13.10212 2.292863 -0.190556 13.119422 0.0 -0.0 -0.0 0.0 -0.0 -0.0 -44.04046 64.186901 46.710612 -65.446975 88.301745 82.244813 -88.508676 -75.618095 -109.317904 43.809492 -63.90395 30.852166 178.619005 -18.760041 89.038626 -122.628342 18.059649 59.746344 -19.170572 24.114561 13.380841 -174.154071 -15.654014 115.347558 -167.375306 -28.008469 145.269175 -168.291079 -26.843572 142.625158 -74.840941 72.961123 92.827929 1.893929 -17.610115 -17.799928 -145.173549 12.06758 -141.82295 4.363899 -1.156902 -2.285763 143.620413 38.233348 -148.080496 151.970795 -2.382502 -170.677154 -150.974624 -63.329882 -119.310168 176.456587 23.044031 -144.51098 103.199394 36.330979 -60.111426 133.798691 -18.088078 -74.87567 -37.215945 -57.917763 0.643014 79.208687 42.158816 -62.651331 0.969343 2.779591 -0.553338 58.039317 62.254478 -48.090642 145.119721 0.310087 179.225753 -16.717959 -29.132644 13.822181 82.642408 -51.016034 81.046325 20.764062 -41.050924 22.054133 -0.0 0.0 -0.0 0.0 -0.0 0.0 7.351061 7.95861 110.818785 5.747415 31.687297 -107.292335 -0.0 0.0 -0.0 0.0 -0.0 0.0 -0.722729 -0.062786 -6.330347 -154.066748 -37.321436 -8.253165
125.86500000000001 83.3653 13.81 -0.0 0.0 0.0 0.0 -4.771896 -180.0 -0.0 -4.771896 180.0 -3.941986 17.932259 -132.771391 10.667824 15.013811 131.983833 -0.0 -0.0 0.0 -0.0 -0.0 0.0 -150.168677 21.535282 155.275413 -41.82092 72.896143 65.935553 -161.755186 -3.872545 167.026395 26.251969 -53.042385 15.323582 -175.19822 -12.846093 89.807639 -35.829765 -26.224911 2.748953 -139.796331 2.902182 115.658797 -167.057413 -45.485875 120.591355 -153.32078 13.628946 138.862343 12.461498 -19.968989 -2.436659 -145.121954 1.975391 -179.748922 21.448112 13.265659 -7.817817 0.098846 0.258289 0.091255 1.295185 3.736058 1.084578 80.1661 68.371792 -83.260848 74.052472 86.559486 -93.568899 -17.766936 24.792085 35.53355 175.961946 24.422785 -144.359291 -176.505527 -20.695006 -88.628526 -141.204003 -57.62862 -103.37884 19.170572 24.114561 -13.380841 169.715018 -7.832621 -115.200961 0.219913 0.63841 -0.122732 5.168895 14.256052 -2.52114 -0.003601 0.605621 -0.190249 1.767475 18.36862 -2.497685 0.529991 -1.364052 0.490385 -12.176545 42.199565 -8.590143 0.0 0.0 -0.0 -0.0 -2.27635 180.0 -7.378202 -7.311021 -95.026796 -72.031038 75.490305 -1.866805 0.0 0.0 -0.0 -0.0 -2.27635 180.0 4.746839 -3.419817 136.635003 -27.407623 -37.554 49.27489
